<?xml version="1.0" encoding="UTF-8"?>
<svg id="Camada_2" data-name="Camada 2" xmlns="http://www.w3.org/2000/svg" viewBox="0 0 1023.82 590.27">
  <defs>
    <style>
      .cls-1 {
        fill: #1d3e7b;
      }

      .cls-1, .cls-2, .cls-3, .cls-4, .cls-5, .cls-6, .cls-7, .cls-8, .cls-9, .cls-10, .cls-11, .cls-12, .cls-13, .cls-14, .cls-15, .cls-16, .cls-17, .cls-18, .cls-19, .cls-20, .cls-21, .cls-22, .cls-23, .cls-24, .cls-25, .cls-26, .cls-27, .cls-28, .cls-29, .cls-30, .cls-31 {
        stroke-width: 0px;
      }

      .cls-2 {
        fill: #ef7b38;
      }

      .cls-3 {
        fill: #6d4f95;
      }

      .cls-4 {
        fill: #f39795;
      }

      .cls-5, .cls-18 {
        fill: #f4a62a;
      }

      .cls-6, .cls-31 {
        fill: #9fae1e;
      }

      .cls-7 {
        fill: #8a1246;
      }

      .cls-8 {
        fill: #e42b86;
      }

      .cls-9 {
        fill: #00624b;
      }

      .cls-10, .cls-18, .cls-23, .cls-31 {
        opacity: .3;
      }

      .cls-10, .cls-30 {
        fill: #e7578e;
      }

      .cls-11 {
        fill: #ba1545;
      }

      .cls-12 {
        fill: #c9341c;
      }

      .cls-13 {
        fill: #611037;
      }

      .cls-14 {
        fill: #016c80;
      }

      .cls-15 {
        fill: #004f58;
      }

      .cls-16 {
        fill: #d0b502;
      }

      .cls-17 {
        fill: #489084;
      }

      .cls-19 {
        fill: #035a94;
      }

      .cls-20 {
        fill: #fbbc01;
      }

      .cls-21 {
        fill: #e7552a;
      }

      .cls-32 {
        stroke-linecap: square;
        stroke-width: 5px;
      }

      .cls-32, .cls-33 {
        fill: none;
        stroke: #f6f6fb;
        stroke-miterlimit: 10;
      }

      .cls-22 {
        fill: #f6f6fb;
      }

      .cls-33 {
        stroke-width: 3.99px;
      }

      .cls-23, .cls-27 {
        fill: #652b82;
      }

      .cls-24 {
        fill: #038036;
      }

      .cls-25 {
        fill: #0070b6;
      }

      .cls-26 {
        fill: #7aa52b;
      }

      .cls-28 {
        fill: #b873aa;
      }

      .cls-29 {
        fill: #e84a51;
      }
    </style>
  </defs>
  <g id="Icon_2" data-name="Icon 2">
    <g>
      <g>
        <polygon class="cls-13" points="170.66 295.14 .02 221.35 .02 368.92 170.66 295.14"/>
        <polygon class="cls-15" points="853.19 295.14 1023.82 368.92 1023.82 221.35 853.19 295.14"/>
        <polygon class="cls-24" points="682.58 221.35 853.21 295.14 853.21 147.57 682.58 221.35"/>
        <polygon class="cls-19" points="682.58 368.92 853.21 442.7 853.21 295.14 682.58 368.92"/>
        <polygon class="cls-20" points="341.29 221.35 511.92 295.14 511.92 147.57 341.29 221.35"/>
        <polygon class="cls-28" points="341.29 368.92 511.92 442.7 511.92 295.14 341.29 368.92"/>
        <polygon class="cls-12" points="0 221.35 170.63 295.14 170.63 147.57 0 221.35"/>
        <polygon class="cls-7" points="0 368.92 170.63 442.7 170.63 295.14 0 368.92"/>
        <polygon class="cls-17" points="511.94 295.14 682.58 368.92 682.58 221.35 511.94 295.14"/>
        <polygon class="cls-27" points="511.94 442.7 682.58 516.49 682.58 368.92 511.94 442.7"/>
        <polygon class="cls-6" points="511.94 147.57 682.58 221.35 682.58 73.78 511.94 147.57"/>
        <polygon class="cls-29" points="170.7 295.14 341.33 368.92 341.33 221.35 170.7 295.14"/>
        <polygon class="cls-2" points="170.7 147.57 341.33 221.35 341.33 73.78 170.7 147.57"/>
        <polygon class="cls-8" points="170.7 442.7 341.33 516.49 341.33 368.92 170.7 442.7"/>
        <polygon class="cls-21" points="341.29 221.35 170.66 147.57 170.66 295.14 341.29 221.35"/>
        <polygon class="cls-5" points="511.92 147.57 341.29 73.78 341.29 221.35 511.92 147.57"/>
        <polygon class="cls-11" points="341.29 368.92 170.66 295.14 170.66 442.7 341.29 368.92"/>
        <polygon class="cls-9" points="1023.82 221.35 853.19 147.57 853.19 295.14 1023.82 221.35"/>
        <polygon class="cls-25" points="1023.82 368.92 853.19 295.14 853.19 442.7 1023.82 368.92"/>
        <polygon class="cls-16" points="682.55 221.35 511.92 147.57 511.92 295.14 682.55 221.35"/>
        <polygon class="cls-3" points="682.55 368.92 511.92 295.14 511.92 442.7 682.55 368.92"/>
        <polygon class="cls-4" points="511.92 295.14 341.29 221.35 341.29 368.92 511.92 295.14"/>
        <polygon class="cls-30" points="511.92 442.7 341.29 368.92 341.29 516.49 511.92 442.7"/>
        <polygon class="cls-26" points="853.19 147.57 682.55 73.78 682.55 221.35 853.19 147.57"/>
        <polygon class="cls-14" points="853.19 295.14 682.55 221.35 682.55 368.92 853.19 295.14"/>
        <polygon class="cls-1" points="853.19 442.7 682.55 368.92 682.55 516.49 853.19 442.7"/>
        <g>
          <polygon class="cls-27" points="682.55 516.49 511.92 590.27 511.92 442.7 682.55 516.49"/>
          <polygon class="cls-30" points="341.27 516.49 511.9 590.27 511.9 442.7 341.27 516.49"/>
          <polygon class="cls-10" points="682.56 516.49 511.93 442.7 511.93 590.27 682.56 516.49"/>
          <polygon class="cls-23" points="341.28 516.49 511.91 590.27 511.91 442.7 341.28 516.49"/>
        </g>
        <g>
          <polygon class="cls-6" points="682.58 73.78 511.94 0 511.94 147.57 682.58 73.78"/>
          <polygon class="cls-18" points="682.58 73.78 511.94 0 511.94 147.57 682.58 73.78"/>
          <polygon class="cls-5" points="341.31 73.78 511.94 147.57 511.94 0 341.31 73.78"/>
          <polygon class="cls-31" points="341.31 73.78 511.94 147.57 511.94 0 341.31 73.78"/>
        </g>
      </g>
      <rect class="cls-33" x="133.26" y="196.91" width="757.26" height="196.46"/>
      <g>
        <path class="cls-22" d="m221.32,261.52c-2.66-4-7.7-8.44-15.84-8.44-5.33,0-8.58,1.63-10.51,3.4-2.37,2.07-3.85,4.88-3.85,8.29s1.33,5.62,4.14,7.55c1.92,1.33,4.44,2.37,9.33,4.44l6.66,2.81c3.85,1.63,8.44,4.14,12.29,8.29,4.44,4.74,6.07,9.33,6.07,15.84,0,10.81-4.14,20.87-10.51,26.94-8.14,7.85-18.8,9.33-26.94,9.33-7.55,0-13.91-1.48-20.28-5.62-5.03-3.26-9.47-8.29-12.58-13.03l14.06-11.99c1.48,2.81,4.29,6.81,6.96,9.03,3.85,3.26,7.99,4.14,12.43,4.14,3.85,0,9.03-.59,12.88-4.88,2.07-2.22,3.7-5.48,3.7-10.21,0-3.55-1.18-6.37-4.44-9.03-3.26-2.66-6.22-3.26-10.07-4.88l-5.62-2.37c-6.22-2.66-9.77-5.03-11.99-7.25-5.18-5.03-6.07-11.1-6.07-16.28,0-7.7,2.22-15.1,8.44-21.32,7.99-7.99,18.06-9.47,26.79-9.47,6.36,0,17.32,1.04,26.64,11.55l-11.69,13.17Z"/>
        <path class="cls-22" d="m263.8,289.05l-5.92,48.7h-18.06l5.92-48.7h-7.11l1.92-15.39h7.11l2.67-21.91h18.06l-2.66,21.91h12.43l-1.92,15.39h-12.43Z"/>
        <path class="cls-22" d="m337.08,273.66h18.06l-7.85,64.1h-18.06l1.04-8.29c-3.26,4.29-6.96,6.51-8.14,7.25-3.85,2.22-7.55,3.11-11.99,3.11-7.7,0-14.95-2.07-21.02-8.14-6.22-6.22-8.59-14.06-8.59-22.65,0-11.55,3.85-21.02,9.92-27.38,5.18-5.33,13.47-10.07,25.31-10.07,4.59,0,8.59.89,12.73,3.11,3.55,1.92,5.77,4.29,7.55,7.25l1.04-8.29Zm-31.38,18.5c-4.14,3.85-6.37,9.47-6.37,14.8,0,5.62,2.07,10.07,4.88,12.73,2.66,2.52,6.51,4.14,11.84,4.14,3.55,0,8.44-.74,12.73-4.59,4.29-3.85,6.37-9.92,6.37-15.39,0-4.59-1.78-8.59-4.44-11.4-2.07-2.22-5.92-4.88-12.43-4.88-4.59,0-8.88,1.33-12.58,4.59Z"/>
        <path class="cls-22" d="m372.31,273.66h18.06l-1.18,9.18c1.78-3.11,4.59-6.37,7.99-8.44,3.85-2.37,7.4-2.81,11.25-2.81,3.26,0,5.62.44,8.44,1.48l-5.33,16.13c-2.07-1.04-4.29-1.63-6.96-1.63-4.74,0-8.58,1.78-11.25,4.44-4,4-6.66,11.99-7.4,18.5l-3.4,27.24h-18.06l7.84-64.1Z"/>
        <path class="cls-22" d="m459.2,239.02c5.33,0,18.36.44,26.5,7.99,4.29,4,7.99,10.51,7.99,21.02s-3.7,19.24-9.33,24.57c-7.85,7.4-18.95,8.59-27.09,8.59h-13.17l-4.44,36.56h-19.24l12.14-98.73h26.64Zm-13.03,45.59h8.14c4.59,0,10.36-.3,14.8-4.14,4-3.55,4.74-8.14,4.74-11.69,0-2.96-.59-7.55-5.33-10.51-3.11-1.92-8.29-2.66-11.99-2.66h-6.81l-3.55,29.01Z"/>
        <path class="cls-22" d="m504.79,273.66h18.06l-1.18,9.18c1.78-3.11,4.59-6.37,7.99-8.44,3.85-2.37,7.4-2.81,11.25-2.81,3.26,0,5.62.44,8.44,1.48l-5.33,16.13c-2.07-1.04-4.29-1.63-6.96-1.63-4.74,0-8.58,1.78-11.25,4.44-4,4-6.66,11.99-7.4,18.5l-3.4,27.24h-18.06l7.84-64.1Z"/>
        <path class="cls-22" d="m615.07,280.76c4.14,4.29,8.29,11.25,8.29,21.32,0,8.14-2.52,18.36-11.4,26.94-8.44,7.99-18.06,10.81-29.46,10.81-9.18,0-17.76-1.92-24.72-8.88-4.74-4.59-8.44-11.69-8.44-21.76s4.59-20.43,11.1-26.79c5.18-5.03,14.36-10.81,29.31-10.81,12.58,0,20.43,4.29,25.31,9.18Zm-16.73,37.45c3.7-3.7,6.07-9.33,6.07-14.36,0-4-1.63-8.88-4.74-11.84-2.96-2.81-7.4-4.44-11.69-4.44-5.03,0-10.07,1.92-13.62,5.18-4.44,4.14-6.37,10.21-6.37,15.25,0,3.85,1.63,8.44,4.44,11.25,2.96,2.96,7.7,4.59,11.84,4.59,4.88,0,10.21-1.78,14.06-5.62Z"/>
        <path class="cls-22" d="m659.18,273.66l-11.99,97.99h-18.06l11.99-97.99h18.06Zm-13.03-34.19c2.96-3.11,6.22-3.7,8.58-3.7,2.81,0,5.18,1.04,6.81,2.66,1.78,1.78,2.81,4.29,2.81,6.96,0,2.22-.74,5.48-3.55,8.29-2.66,2.66-5.77,3.7-8.58,3.7s-5.03-1.04-6.81-2.66c-1.78-1.78-2.81-3.85-2.81-6.81s1.04-5.92,3.55-8.44Z"/>
        <path class="cls-22" d="m733.63,320.58c-3.26,6.66-8.44,11.99-13.62,14.95-6.37,3.55-13.47,4.29-19.24,4.29-8.59,0-17.02-1.63-23.83-8.88-3.55-3.7-7.7-10.21-7.7-20.72,0-11.1,4-22.2,11.1-29.16,8.14-8.14,17.76-9.47,25.61-9.47s15.69,1.48,21.91,7.4c6.96,6.66,8.29,15.39,8.29,23.24,0,2.66,0,4.59-.3,6.51h-47.96c-.74,5.92,1.04,10.21,3.7,12.88,3.26,3.4,7.25,4,10.51,4,2.22,0,6.37-.15,9.77-2.07,2.66-1.63,4.88-4.29,6.22-6.66l15.54,3.7Zm-13.32-23.39c-.15-3.7-1.78-7.25-4-9.33-2.52-2.37-6.37-3.55-10.07-3.55-4.88,0-8.44,1.92-10.95,4.14-2.22,2.07-4.29,5.18-5.33,8.73h30.35Z"/>
        <path class="cls-22" d="m800.39,293.2c-2.67-2.52-7.4-5.62-15.25-5.62-4.14,0-9.18.89-13.32,5.03-4,3.85-5.92,9.77-5.92,14.65,0,4.59,1.63,8.88,4.44,11.69,2.81,2.96,7.25,4.88,12.14,4.88,3.85,0,9.92-1.18,14.8-5.62l-2.07,17.62c-5.92,3.4-12.58,4-16.88,4-9.18,0-17.76-3.26-23.39-9.03-4.59-4.74-7.99-11.69-7.99-21.61,0-11.25,4-20.43,10.36-26.94,7.7-7.85,16.73-10.66,27.53-10.66,5.62,0,11.25.74,17.76,3.85l-2.22,17.76Z"/>
        <path class="cls-22" d="m852.35,255.6l-10.07,82.15h-19.24l10.07-82.15h-22.2l2.07-16.58h63.65l-2.07,16.58h-22.2Z"/>
      </g>
      <line class="cls-32" x1="890.52" y1="404.43" x2="890.57" y2="185.84"/>
      <line class="cls-32" x1="117.49" y1="196.91" x2="906.29" y2="196.91"/>
      <line class="cls-32" x1="117.49" y1="393.37" x2="906.29" y2="393.37"/>
    </g>
  </g>
</svg>