<?xml version="1.0" encoding="UTF-8"?>
<svg id="Camada_2" data-name="Camada 2" xmlns="http://www.w3.org/2000/svg" viewBox="0 0 866.01 499.36">
  <defs>
    <style>
      .cls-1, .cls-2 {
        fill: none;
        stroke: #fffffe;
        stroke-miterlimit: 10;
      }

      .cls-2 {
        opacity: .3;
      }
    </style>
  </defs>
  <g id="Icon_2" data-name="Icon 2">
    <g>
      <polygon class="cls-1" points="145.19 249.68 1.28 187.45 1.28 311.91 145.19 249.68"/>
      <polygon class="cls-1" points="720.84 249.68 864.75 311.91 864.75 187.45 720.84 249.68"/>
      <polygon class="cls-1" points="576.95 187.45 720.86 249.68 720.86 125.22 576.95 187.45"/>
      <polygon class="cls-1" points="576.95 311.91 720.86 374.14 720.86 249.68 576.95 311.91"/>
      <polygon class="cls-1" points="289.1 187.45 433.01 249.68 433.01 125.22 289.1 187.45"/>
      <polygon class="cls-1" points="289.1 311.91 433.01 374.14 433.01 249.68 289.1 311.91"/>
      <polygon class="cls-1" points="1.26 187.45 145.17 249.68 145.17 125.22 1.26 187.45"/>
      <polygon class="cls-1" points="1.26 311.91 145.17 374.14 145.17 249.68 1.26 311.91"/>
      <polygon class="cls-1" points="433.03 249.68 576.94 311.91 576.94 187.45 433.03 249.68"/>
      <polygon class="cls-1" points="433.03 374.14 576.94 436.37 576.94 311.91 433.03 374.14"/>
      <polygon class="cls-1" points="433.03 125.22 576.94 187.45 576.94 62.99 433.03 125.22"/>
      <polygon class="cls-1" points="145.23 249.68 289.14 311.91 289.14 187.45 145.23 249.68"/>
      <polygon class="cls-1" points="145.23 125.22 289.14 187.45 289.14 62.99 145.23 125.22"/>
      <polygon class="cls-1" points="145.23 374.14 289.14 436.37 289.14 311.91 145.23 374.14"/>
      <polygon class="cls-1" points="289.1 187.45 145.19 125.22 145.19 249.68 289.1 187.45"/>
      <polygon class="cls-1" points="433.01 125.22 289.1 62.99 289.1 187.45 433.01 125.22"/>
      <polygon class="cls-1" points="289.1 311.91 145.19 249.68 145.19 374.14 289.1 311.91"/>
      <polygon class="cls-1" points="864.75 187.45 720.84 125.22 720.84 249.68 864.75 187.45"/>
      <polygon class="cls-1" points="864.75 311.91 720.84 249.68 720.84 374.14 864.75 311.91"/>
      <polygon class="cls-1" points="576.93 187.45 433.01 125.22 433.01 249.68 576.93 187.45"/>
      <polygon class="cls-1" points="576.93 311.91 433.01 249.68 433.01 374.14 576.93 311.91"/>
      <polygon class="cls-1" points="433.01 249.68 289.1 187.45 289.1 311.91 433.01 249.68"/>
      <polygon class="cls-1" points="433.01 374.14 289.1 311.91 289.1 436.37 433.01 374.14"/>
      <polygon class="cls-1" points="720.84 125.22 576.93 62.99 576.93 187.45 720.84 125.22"/>
      <polygon class="cls-1" points="720.84 249.68 576.93 187.45 576.93 311.91 720.84 249.68"/>
      <polygon class="cls-1" points="720.84 374.14 576.93 311.91 576.93 436.37 720.84 374.14"/>
      <g>
        <polygon class="cls-1" points="576.93 436.37 433.01 498.6 433.01 374.14 576.93 436.37"/>
        <polygon class="cls-1" points="289.08 436.37 432.99 498.6 432.99 374.14 289.08 436.37"/>
        <polygon class="cls-2" points="576.93 436.37 433.02 374.14 433.02 498.6 576.93 436.37"/>
        <polygon class="cls-2" points="289.09 436.37 433 498.6 433 374.14 289.09 436.37"/>
      </g>
      <g>
        <polygon class="cls-1" points="576.95 62.99 433.03 .76 433.03 125.22 576.95 62.99"/>
        <polygon class="cls-2" points="576.95 62.99 433.03 .76 433.03 125.22 576.95 62.99"/>
        <polygon class="cls-1" points="289.12 62.99 433.03 125.22 433.03 .76 289.12 62.99"/>
        <polygon class="cls-2" points="289.12 62.99 433.03 125.22 433.03 .76 289.12 62.99"/>
      </g>
    </g>
  </g>
</svg>